<svg xmlns="http://www.w3.org/2000/svg" width="41.805" height="41.805" viewBox="0 0 41.805 41.805"><defs><style>.a{fill:#4b4949;}</style></defs><path class="a" d="M36.58,0H5.226A5.23,5.23,0,0,0,0,5.226V28.741a5.23,5.23,0,0,0,5.226,5.226h7.838v6.859a.977.977,0,0,0,.98.98.938.938,0,0,0,.58-.2l10.2-7.643H36.58a5.23,5.23,0,0,0,5.226-5.226V5.226A5.23,5.23,0,0,0,36.58,0Zm1.306,28.741a1.31,1.31,0,0,1-1.306,1.306H23.515l-1.045.784-5.487,4.115v-4.9H5.226a1.31,1.31,0,0,1-1.306-1.306V5.226A1.31,1.31,0,0,1,5.226,3.919H36.58a1.31,1.31,0,0,1,1.306,1.306Z"/></svg>