<svg xmlns="http://www.w3.org/2000/svg" width="219.159" height="175.327" viewBox="0 0 219.159 175.327"><defs><style>.a{fill:#707070;}</style></defs><path class="a" d="M87.331,89.6a5.479,5.479,0,0,0,7.749,0l3.873-3.873a5.479,5.479,0,0,0,0-7.749L86.722,65.748,98.95,53.516a5.479,5.479,0,0,0,0-7.749l-3.873-3.873a5.479,5.479,0,0,0-7.749,0L67.35,61.871a5.479,5.479,0,0,0,0,7.749Zm32.877-3.87,3.873,3.873a5.479,5.479,0,0,0,7.749,0l19.978-19.978a5.479,5.479,0,0,0,0-7.749L131.831,41.9a5.479,5.479,0,0,0-7.749,0l-3.873,3.873a5.479,5.479,0,0,0,0,7.749l12.228,12.228L120.209,77.98A5.479,5.479,0,0,0,120.209,85.729Zm93.471,56.725H130.653c-.253,6.784-5.037,10.958-11.211,10.958H98.622c-6.4,0-11.307-5.982-11.222-10.958H5.479A5.5,5.5,0,0,0,0,147.932v5.479a21.98,21.98,0,0,0,21.916,21.916H197.243a21.98,21.98,0,0,0,21.916-21.916v-5.479A5.5,5.5,0,0,0,213.68,142.453ZM197.243,16.437A16.485,16.485,0,0,0,180.806,0H38.353A16.485,16.485,0,0,0,21.916,16.437V131.5H197.243ZM175.327,109.58H43.832V21.916h131.5Z"/></svg>