<svg xmlns="http://www.w3.org/2000/svg" width="168.5" height="168.5" viewBox="0 0 168.5 168.5"><defs><style>.a{fill:#707070;}</style></defs><path class="a" d="M52.656,105.313h3.949v5.266a5.264,5.264,0,0,0,5.266,5.266H75.035a5.264,5.264,0,0,0,5.266-5.266v-5.266H84.25A10.533,10.533,0,0,0,94.781,94.781V21.063A10.533,10.533,0,0,0,84.25,10.531V5.266A5.264,5.264,0,0,0,78.984,0H57.922a5.264,5.264,0,0,0-5.266,5.266v5.266A10.533,10.533,0,0,0,42.125,21.063V94.781A10.533,10.533,0,0,0,52.656,105.313ZM152.7,147.438h-.425A63.082,63.082,0,0,0,105.313,42.125V63.188a42.125,42.125,0,0,1,0,84.25H15.8A15.8,15.8,0,0,0,0,163.234,5.264,5.264,0,0,0,5.266,168.5H163.234a5.264,5.264,0,0,0,5.266-5.266A15.8,15.8,0,0,0,152.7,147.438ZM34.227,136.906H102.68a2.632,2.632,0,0,0,2.633-2.633v-5.266a2.632,2.632,0,0,0-2.633-2.633H34.227a2.632,2.632,0,0,0-2.633,2.633v5.266A2.632,2.632,0,0,0,34.227,136.906Z"/></svg>