<svg id="plus" xmlns="http://www.w3.org/2000/svg" width="35.968" height="35.968" viewBox="0 0 35.968 35.968">
  <path id="plus-solid_copy" data-name="plus-solid copy" d="M33.4,46.13H21.838V34.569A2.569,2.569,0,0,0,19.268,32H16.7a2.569,2.569,0,0,0-2.569,2.569V46.13H2.569A2.569,2.569,0,0,0,0,48.7v2.569a2.569,2.569,0,0,0,2.569,2.569H14.13V65.4A2.569,2.569,0,0,0,16.7,67.968h2.569A2.569,2.569,0,0,0,21.838,65.4V53.838H33.4a2.569,2.569,0,0,0,2.569-2.569V48.7A2.569,2.569,0,0,0,33.4,46.13Z" transform="translate(0 -32)" fill="#bfbfbf"/>
</svg>
