<svg xmlns="http://www.w3.org/2000/svg" width="89.818" height="78.591" viewBox="0 0 89.818 78.591"><defs><style>.a{fill:#707070;}</style></defs><path class="a" d="M81.4,32H58.943a8.423,8.423,0,0,0-8.42,8.42V62.875a8.423,8.423,0,0,0,8.42,8.42H72.977V82.523A11.238,11.238,0,0,1,61.75,93.75h-1.4a4.2,4.2,0,0,0-4.21,4.21v8.42a4.2,4.2,0,0,0,4.21,4.21h1.4A28.061,28.061,0,0,0,89.818,82.523V40.42A8.423,8.423,0,0,0,81.4,32ZM30.875,32H8.42A8.423,8.423,0,0,0,0,40.42V62.875A8.423,8.423,0,0,0,8.42,71.3H22.455V82.523A11.238,11.238,0,0,1,11.227,93.75h-1.4a4.2,4.2,0,0,0-4.21,4.21v8.42a4.2,4.2,0,0,0,4.21,4.21h1.4A28.061,28.061,0,0,0,39.3,82.523V40.42A8.423,8.423,0,0,0,30.875,32Z" transform="translate(0 -32)"/></svg>