<svg xmlns="http://www.w3.org/2000/svg" width="245" height="171.5" viewBox="0 0 245 171.5"><defs><style>.a{fill:#707070;}</style></defs><path class="a" d="M36.75,105.5A24.5,24.5,0,1,0,12.25,81,24.523,24.523,0,0,0,36.75,105.5Zm171.5,0A24.5,24.5,0,1,0,183.75,81,24.523,24.523,0,0,0,208.25,105.5Zm12.25,12.25H196a24.428,24.428,0,0,0-17.265,7.12,56,56,0,0,1,28.749,41.88H232.75A12.237,12.237,0,0,0,245,154.5V142.25A24.523,24.523,0,0,0,220.5,117.75Zm-98,0A42.875,42.875,0,1,0,79.625,74.875,42.853,42.853,0,0,0,122.5,117.75ZM151.9,130h-3.177a59.2,59.2,0,0,1-52.445,0H93.1A44.111,44.111,0,0,0,49,174.1v11.025A18.38,18.38,0,0,0,67.375,203.5h110.25A18.38,18.38,0,0,0,196,185.125V174.1A44.111,44.111,0,0,0,151.9,130Zm-85.635-5.13A24.428,24.428,0,0,0,49,117.75H24.5A24.523,24.523,0,0,0,0,142.25V154.5a12.237,12.237,0,0,0,12.25,12.25H37.477a56.136,56.136,0,0,1,28.788-41.88Z" transform="translate(0 -32)"/></svg>