<svg xmlns="http://www.w3.org/2000/svg" width="162.268" height="162.253" viewBox="0 0 162.268 162.253"><defs><style>.a{fill:#707070;}</style></defs><path class="a" d="M161.536,73.491l-56.865-56.73a2.714,2.714,0,0,0-3.82,0L89.356,28.222a2.714,2.714,0,0,0,0,3.82l3.786,3.753-81.95,81.781C-1.925,130.66-4.055,152.06,8.014,166.09a34.974,34.974,0,0,0,51.151,1.961l83.269-83.066,3.786,3.753a2.714,2.714,0,0,0,3.82,0l11.495-11.461a2.673,2.673,0,0,0,0-3.786ZM107.545,97.122H54.466L104.5,47.188,131.041,73.66Z" transform="translate(-0.054 -15.975)"/></svg>