<svg id="_8de17198-7ae2-47ff-b503-0799787369b4" data-name="8de17198-7ae2-47ff-b503-0799787369b4" xmlns="http://www.w3.org/2000/svg" xmlns:xlink="http://www.w3.org/1999/xlink" viewBox="0 0 618.02 704"><defs><style>.cls-1{fill:none;}.cls-2,.cls-3{opacity:0.5;}.cls-13,.cls-2{isolation:isolate;}.cls-2{fill:url(#linear-gradient);}.cls-4{fill:url(#linear-gradient-2);}.cls-5{fill:#f5f5f5;}.cls-6{fill:#e0d3d3;}.cls-7{clip-path:url(#clip-path);}.cls-8{fill:url(#linear-gradient-3);}.cls-9{fill:url(#linear-gradient-4);}.cls-10{fill:#be6f72;}.cls-11{fill:#fff;}.cls-12{fill:#3ad29f;}.cls-13,.cls-15{opacity:0.05;}.cls-14{fill:#5a2f32;}.cls-16{fill:url(#linear-gradient-5);}.cls-17{fill:url(#linear-gradient-6);}.cls-18{fill:url(#linear-gradient-7);}.cls-19{fill:url(#linear-gradient-8);}.cls-20{fill:#4d8af0;}.cls-21{fill:#e0e0e0;}.cls-22{fill:url(#linear-gradient-9);}.cls-23{fill:url(#linear-gradient-10);}.cls-24{fill:url(#linear-gradient-11);}</style><linearGradient id="linear-gradient" x1="252.52" y1="570" x2="252.52" y2="706" gradientTransform="matrix(1, 0, 0, -1, 0, 706)" gradientUnits="userSpaceOnUse"><stop offset="0" stop-color="gray" stop-opacity="0.25"/><stop offset="0.54" stop-color="gray" stop-opacity="0.12"/><stop offset="1" stop-color="gray" stop-opacity="0.1"/></linearGradient><linearGradient id="linear-gradient-2" x1="561.7" y1="313.88" x2="561.72" y2="453.99" gradientTransform="matrix(0.99, 0, 0, -1, -303.58, 588.96)" xlink:href="#linear-gradient"/><clipPath id="clip-path"><rect class="cls-1" x="118.02" y="3" width="270" height="135"/></clipPath><linearGradient id="linear-gradient-3" x1="13.84" y1="461.01" x2="13.84" y2="503.01" xlink:href="#linear-gradient"/><linearGradient id="linear-gradient-4" x1="487.5" y1="275.82" x2="487.5" y2="584.01" gradientTransform="matrix(1, 0, 0, -1, -302.98, 589)" xlink:href="#linear-gradient"/><linearGradient id="linear-gradient-5" x1="530.91" y1="402.97" x2="530.91" y2="451.04" gradientTransform="matrix(1, 0, 0, -1, -302.98, 589)" xlink:href="#linear-gradient"/><linearGradient id="linear-gradient-6" x1="573.5" y1="381.47" x2="573.5" y2="452" gradientTransform="matrix(1, 0, 0, -1, -302.98, 589)" xlink:href="#linear-gradient"/><linearGradient id="linear-gradient-7" x1="466.02" y1="163" x2="466.02" y2="179" xlink:href="#linear-gradient"/><linearGradient id="linear-gradient-8" x1="544.26" y1="46.4" x2="544.26" y2="242.18" gradientTransform="matrix(1, 0, 0, -1, -302.98, 589)" xlink:href="#linear-gradient"/><linearGradient id="linear-gradient-9" x1="481.02" y1="173" x2="481.02" y2="298" xlink:href="#linear-gradient"/><linearGradient id="linear-gradient-10" x1="343.02" y1="2" x2="343.02" y2="166" xlink:href="#linear-gradient"/><linearGradient id="linear-gradient-11" x1="593.02" y1="2" x2="593.02" y2="166" xlink:href="#linear-gradient"/></defs><title>mission</title><rect class="cls-2" x="114.02" width="277" height="136"/><g class="cls-3"><path class="cls-4" d="M113.51,137.06l1,138,277-2.07-1-138Zm268.74,127.8L121.66,266.8l-.11-14.31,260.59-2Zm-.16-21.46-260.59,2L121.4,231,382,229.08Zm-.16-21.46-260.59,2-.11-14.31,260.59-2Zm-.16-21.46-260.59,2-.11-14.31,260.59-2ZM381.61,179,121,181l-.11-14.31,260.59-2Zm-.16-21.46-260.59,2-.11-14.31,260.59-2Z"/></g><path class="cls-5" d="M116.52,136l1,135,270-2-1-135ZM378.46,261l-254,1.9-.1-14,254-1.9Zm-.16-21-254,1.9-.1-14,254-1.9Zm-.16-21-254,1.9-.1-14L378,205ZM378,198l-254,2-.1-14,254-1.9Zm-.16-21-254,1.9-.1-14,254-1.9Zm-.16-21-254,1.9-.1-14,254-1.9Z"/><rect id="c2f262c5-432c-497c-b342-014b49715688" class="cls-6" x="118.02" y="3" width="270" height="135"/><g class="cls-7"><g class="cls-3"><polygon class="cls-8" points="23.21 244.99 27.68 241.74 25.26 214.41 20.01 202.99 0 210.71 23.21 244.99"/><path class="cls-9" d="M327.77,8.29c-12.16-5.84-21.26-3.1-27.62,1.77-8.83,6.09-12.86,16.57-12.86,16.57l-1.73,4.67h0l-8.23,6-2.68-5.72S245.49-20.22,159.5,80.93l-.4-.32s-7.33,9-14,19l-1,1.44-.42.65-.6.94-.44.7-.64,1-.57.94-.62,1-.44.76-.46.79-.44.78-.46.85-.67,1.27-.37.71-.41.82-.3.63-.39.82-.24.55q-.32.73-.61,1.44l-.22.55c-.1.26-.19.52-.28.77l-.18.53q-.2.6-.36,1.17c-.06.2-.12.41-.16.6h0a11.25,11.25,0,0,0-.38,3.79L20,203l5.87,12.78s82.28-32.52,138.36-68.17l-2.36,49.88h0l-.15,3.09s-51.22,42.34-64.55,64l-22.86,13.2,24,35.4,5.59-4.06L107.43,281l94-75.14S219.25,173.3,219.56,146l3.85,14.87s8.19,23,14,23.94,5.81-17.86,1.75-23.44-2.08-42.82-2.08-42.82l1-7.58,14.71-10.69.54-.52.77,4.68,3,.26v.21H257l.14,1.36h0l1.89,35.52L269.46,182s8.2,23,14,23.94,5.81-17.86,1.76-23.44-2.08-42.82-2.08-42.82l4.29-31h0l.08-.6.1-.69,8.46.73s8.77-30.24-5.94-43.42L287.45,59l5.48-4h0l1.1-.8a24.89,24.89,0,0,0,34.82-.07A17.36,17.36,0,0,0,340.46,51c.74-.52,1.46-1,2.14-1.54,3.08-2.21,5.63-4.24,6.14-5.22C350.16,41.46,346.59,17.33,327.77,8.29Z"/></g><path class="cls-10" d="M253.72,88.08l2.89,54.18,10.1,39s8,22.36,13.57,23.24,5.64-17.34,1.7-22.76-2-41.57-2-41.57l6.37-46Z"/><path class="cls-11" d="M250.36,97.15l1.47,8.87,40.71,3.52s8.51-29.36-5.76-42.16Z"/><path class="cls-12" d="M159.55,82.87s-25,30.6-23.86,41.34L24.5,201.71l5.7,12.41s79.88-31.57,134.34-66.18l-2.43,51.43s-49.73,41.11-62.67,62.1l9.94,16,91.27-73S227.72,155,214.74,128Z"/><polygon points="5.08 209.21 24.5 201.71 29.6 212.81 31.95 239.34 27.61 242.49 5.08 209.21"/><polygon points="99.44 261.46 77.25 274.28 100.57 308.65 105.99 304.7 109.38 277.41 99.44 261.46"/><path class="cls-11" d="M286.77,67.37l-15-32.11S243.35-15.26,159.44,83.8l55.3,44.2,35.81-26Z"/><path class="cls-10" d="M298.61,23.19,312,41.6h0L279.47,65.23A5.4,5.4,0,0,1,271.93,64h0l-7.06-9.71a5.4,5.4,0,0,1,1.19-7.54h0l32.52-23.63Z"/><path class="cls-13" d="M283.08,34.46a23.8,23.8,0,0,0,6.41,23.48l13.82-10L289.92,29.49Z"/><ellipse class="cls-10" cx="307.46" cy="39.91" rx="24.15" ry="24.1" transform="translate(35.29 188.39) rotate(-36.01)"/><path class="cls-13" d="M296.29,25.7l-14,9.32L284,30.49s11.47-29.86,38.22-17c18.28,8.77,21.74,32.2,20.36,34.86-.55,1-3.53,3.36-7,5.77A16.8,16.8,0,0,1,313,51.28c-4.69-5.58-12.85-17.12-11.34-23.74h0C300.3,25,298.51,24,296.2,25.72Z"/><path class="cls-14" d="M297.37,24.91l-14,9.32L285,29.7s11.47-29.86,38.22-17c18.28,8.77,21.74,32.2,20.36,34.86-.55,1-3.53,3.36-7,5.77a16.8,16.8,0,0,1-22.54-2.84c-4.69-5.58-12.85-17.12-11.34-23.74h0c-1.37-2.49-3.16-3.49-5.47-1.82Z"/><ellipse class="cls-10" cx="299.09" cy="26.14" rx="5.37" ry="2.68" transform="translate(41.79 180.84) rotate(-36.01)"/><polygon class="cls-13" points="245.87 101.24 252.26 95.77 252.34 104.41 250.94 101.08 245.87 101.24"/><polygon class="cls-13" points="254.64 106.45 254.78 107.78 284.14 110.07 284.32 108.82 254.64 106.45"/><g class="cls-15"><path d="M146,101.31c-4.48,6.75-8.63,14-9.91,19.22l3.48-2.43C139.12,114.27,142,107.91,146,101.31Z"/><path d="M166,193.25l2.43-51.43C113.94,176.43,34,208,34,208l-3.85,6.11S110,182.54,164.51,147.93l-2.29,48.43Z"/></g><path class="cls-10" d="M209,67.62l2.89,54.18,10.1,39s8,22.36,13.57,23.24,5.64-17.34,1.7-22.76-2-41.57-2-41.57l6.37-46Z"/><path class="cls-13" d="M212.23,41.26s-6.73,18.13-3.87,24.34"/><polygon class="cls-13" points="209.15 66.68 209.13 70.05 241.38 75.47 241.77 72.77 209.15 66.68"/><polygon class="cls-11" points="216.43 39.04 209 67.62 241.62 73.7 250.24 37.64 216.43 39.04"/></g><g class="cls-3"><path class="cls-16" d="M215.31,138l6.43,24.31S230,185.14,235.89,186s5.88-17.71,1.78-23.24c-2.16-2.91-2.63-14.47-2.59-24.8Z"/></g><path class="cls-10" d="M215.83,138,222,161.8s8,22.36,13.57,23.24,5.64-17.34,1.7-22.76c-2.07-2.85-2.52-14.17-2.48-24.29Z"/><g class="cls-3"><path class="cls-17" d="M281.14,137H255.45l.35,6.44,10.69,40.14s8.42,23,14.37,23.92,6-17.85,1.8-23.42-2.14-42.78-2.14-42.78Z"/></g><path class="cls-10" d="M280.56,137H256.28l.33,6.26,10.1,39s8,22.36,13.57,23.24,5.64-17.34,1.7-22.76-2-41.57-2-41.57Z"/><g class="cls-3"><rect class="cls-18" x="314.02" y="527" width="304" height="16"/></g><rect class="cls-6" x="319.02" y="527" width="297" height="13"/><g class="cls-3"><path class="cls-19" d="M381.78,488.25l1.21.52h0l38.73,16.66,49.36-58.49s7.47-8.36-1.43-14.08-14.49,9.08-14.49,9.08l-38,40.66L385,466.5l.5-3.38-29.34-17a36,36,0,0,0-1.86-3.11l-.27-1-1.47-1.29c-.28-.3-.56-.58-.84-.83l4.86-5.27A26.12,26.12,0,0,0,391,414.14a18.38,18.38,0,0,0,6.88,0A19,19,0,0,0,411.47,403a1.39,1.39,0,0,1-1,.73,17.78,17.78,0,0,0,1-2c-1,2.43-10.38-.92-11.79-1.67-4.3-2.28-6.51-5.67-8.73-9.81-4.38-8.2-12.48-11.23-21.58-11.94-7-.55-14.12-.07-20.57,2.58s-12.14,7.69-14.48,14.27a18.84,18.84,0,0,0-1,7,17,17,0,0,0,5.53,13.56,11.88,11.88,0,0,0,1,.77c.19.76.41,1.5.67,2.24L339.18,420v.08l-8.33,9-.43-.13-87.84,13.14v.18c-2.92-1.93-16.15-8.65-49.17.48-12.47,3.45-33.25,3.08-55.55,1-15.69-19.47-25.74-79.85-25.74-79.85l-3.93-17.08L57.06,358.64s23.6,5.25,27.53,11.82c6,2,9.71,46.81,11.14,68C65.12,433.74,40,428.32,40,428.32l-18.36-6.57-13.11,46S23,452,36.1,450.65c0,0,65.56,31.53,114.07,25C169,473,187.32,481,202.61,483.49a298.75,298.75,0,0,0,40.49,3.94l.16,14.45s54-2.33,89.45-13.58c2.69,7.29,4.85,12.55,5.6,12.92l6.43-3.15,36.18,44.53,70.8-28.9s10.49-3.94,5.24-13.14-17,1.31-17,1.31l-52.44,18.39-22.13-30.68h0l-.86-1.2,4.64-2.28s-.15-.68-.42-1.86L380.93,494Z"/></g><polygon class="cls-10" points="339 450.66 322.79 435.64 349.62 406.55 365.83 421.57 339 450.66"/><path class="cls-13" d="M348.34,407.83,336.5,420.67a25.56,25.56,0,0,0,15.67,15.61l12.39-13.43Z"/><path class="cls-10" d="M351.82,475.82l65,28,48-56.89s7.27-8.13-1.39-13.69-14.1,8.83-14.1,8.83l-36.92,39.54L365,457.86Z"/><polygon class="cls-12" points="348.41 443.46 381.57 462.62 377.11 492.65 345.86 467.74 348.41 443.46"/><ellipse class="cls-10" cx="361.8" cy="410.88" rx="25.5" ry="25.55"/><path class="cls-12" d="M340.76,433.24,328,429.4l-85.44,12.78.64,58.14s103.93-4.47,115.41-31.3L351,442.19Z"/><polygon class="cls-13" points="346.85 468.52 377.11 492.65 378.38 482.43 348.41 453.68 346.85 468.52"/><path class="cls-20" d="M243.21,442.82s-11.48-10.22-48.46,0-149.2-14-149.2-14l-3.83,21.72s63.76,30.67,110.94,24.28c18.37-2.49,36.13,5.28,51,7.67a287.07,287.07,0,0,0,39.53,3.83Z"/><path d="M45.55,428.76,27.7,422.37,14.94,467.1s14-15.33,26.78-16.61Z"/><path class="cls-20" d="M88.9,372.55l26.78-6.39s12.75,76.66,31.88,83H100.38S96.55,375.1,88.9,372.55Z"/><path d="M115.68,366.16l-3.83-16.61L62.12,361s23,5.11,26.78,11.5Z"/><path class="cls-13" d="M365.86,381.34c-6.76-.53-13.73-.07-20,2.51s-11.8,7.48-14.09,13.88S331,412,336.13,416.4a7.62,7.62,0,0,0,4.49,2c2.71.11,5-1.88,7.08-3.61a59.53,59.53,0,0,1,12.8-8.08c3.91-1.82,8.68-3.16,12.38-.94,1.76,1.06,3,2.77,4.45,4.22a18.1,18.1,0,0,0,29.49-5.91c-1,2.37-10.09-.9-11.46-1.63-4.18-2.22-6.34-5.51-8.49-9.54C382.59,385,374.72,382,365.86,381.34Z"/><path d="M365.86,380.06c-6.76-.53-13.73-.07-20,2.51S334,390,331.77,396.45s-.81,14.26,4.36,18.67a7.62,7.62,0,0,0,4.49,2c2.71.11,5-1.88,7.08-3.61a59.53,59.53,0,0,1,12.8-8.08c3.91-1.82,8.68-3.16,12.38-.94,1.76,1.06,3,2.77,4.45,4.22a18.1,18.1,0,0,0,29.49-5.91c-1,2.37-10.09-.9-11.46-1.63-4.18-2.22-6.34-5.51-8.49-9.54C382.59,383.7,374.72,380.75,365.86,380.06Z"/><ellipse class="cls-10" cx="353.52" cy="408.33" rx="3.83" ry="1.91" transform="translate(-125.4 658.01) rotate(-76.65)"/><polygon class="cls-13" points="341.92 496.61 342.77 497.66 361.95 488.36 361.11 487.2 341.92 496.61"/><polygon class="cls-13" points="381.08 465.91 377.95 486.9 379.11 487.56 381.57 466.15 381.08 465.91"/><rect class="cls-21" x="264.89" y="412.15" width="15.3" height="103.49"/><rect class="cls-21" x="175.79" y="166.24" width="103.49" height="15.3" transform="translate(-9.76 334.2) rotate(-71.43)"/><polygon class="cls-21" points="275.09 423.65 269.99 423.65 269.99 173.73 275.02 174 275.09 423.65"/><path class="cls-10" d="M332.47,485l44.63,54.94L446,511.83S456.17,508,451,499s-16.58,1.28-16.58,1.28l-51,17.89-31-43Z"/><path class="cls-12" d="M314,439.63s19.13,58.77,21.68,60l30-14.69s-8.5-39.64-18-45.69S315.26,434.51,314,439.63Z"/><path class="cls-13" d="M319.44,456.12s-1,22.48,5.38,26.31"/><g class="cls-3"><polygon class="cls-22" points="550.06 408 540.77 417.09 517.07 516.24 516.74 516.19 442 514.32 407.5 527.96 407.5 533 513.33 531.88 520.61 531.88 525.14 530.9 554.54 409.68 550.06 408"/></g><polygon class="cls-5" points="546.75 411 537.9 419.65 543.77 421.78 551.01 412.6 546.75 411"/><polygon class="cls-5" points="537.9 419.65 543.77 421.78 518.71 528.93 511.78 528.93 537.9 419.65"/><polygon class="cls-21" points="518.71 528.93 523.02 528 551.01 412.6 543.77 421.78 518.71 528.93"/><polygon class="cls-21" points="411.03 525.2 411.03 530 511.78 528.93 513.42 523.76 411.03 525.2"/><polyline class="cls-5" points="515.58 514.08 515.02 514 443.88 512.22 411.03 525.2 513.38 524.14"/><polygon class="cls-21" points="474.02 521 476.02 515 515.02 515 513.02 522 474.02 521"/><polygon class="cls-6" points="441.02 520 455.02 515 465.02 515 460.02 520 441.02 520"/><g class="cls-3"><rect class="cls-23" x="334.02" y="540" width="18" height="164"/></g><g class="cls-3"><rect class="cls-24" x="584.02" y="540" width="18" height="164"/></g><rect class="cls-6" x="336.02" y="540" width="15" height="161"/><rect class="cls-6" x="586.02" y="540" width="15" height="161"/><polygon class="cls-21" points="270.02 174 247 139.99 249.42 132.8 275.02 174 270.02 174"/><rect x="377.45" y="421.31" width="10.08" height="4" transform="translate(-181.76 507.64) rotate(-56.4)"/><rect x="368.45" y="397.61" width="2" height="29.61" transform="translate(-178.54 491.72) rotate(-56.38)"/></svg>